<?xml version="1.0" encoding="utf-8"?>
<!-- Generator: Adobe Illustrator 26.4.1, SVG Export Plug-In . SVG Version: 6.00 Build 0)  -->
<svg version="1.1" id="Layer_1" xmlns="http://www.w3.org/2000/svg" xmlns:xlink="http://www.w3.org/1999/xlink" x="0px" y="0px"
	 viewBox="0 0 64 64" style="enable-background:new 0 0 64 64;" xml:space="preserve">
<style type="text/css">
	.st0{fill:#FFFFFF;}
</style>
<path class="st0" d="M27,9.5c0,0-7.5-0.2-15.4,5.6S0,29.1,0,46.4c0,0,6.5,7.8,18.6,8.2c0,0,2-2.4,3.7-4.4c-7-2.1-9.6-6.3-9.6-6.3
	c6.4,3.6,10.8,5.1,17.4,5.1c6.7-0.1,14.8-1.6,21.2-5.1c0,0-2.6,4.3-9.6,6.3c1.6,2.1,3.7,4.4,3.7,4.4C57.5,54.2,64,46.4,64,46.4
	c0-17.3-3.8-25.5-11.7-31.3S37,9.5,37,9.5l-0.6,0.6c9.9,2.8,14.4,7,14.4,7c-5.6-3.9-15-3.9-18.8-3.9s-13.2,0-18.8,3.9
	c0,0,4.5-4.3,14.4-7L27,9.5z M22.6,28.2c3.2,0,5.7,2.9,5.6,6.6c0,3.6-2.5,6.6-5.6,6.6c-3.1,0-5.6-2.9-5.6-6.6S19.4,28.2,22.6,28.2z
	 M41.4,28.2c3.2,0,5.6,2.9,5.6,6.6s-2.5,6.6-5.6,6.6c-3.2,0-5.6-2.9-5.6-6.6C35.7,31.2,38.3,28.2,41.4,28.2z"/>
</svg>
