<?xml version="1.0" encoding="UTF-8"?><svg id="Layer_1" xmlns="http://www.w3.org/2000/svg" viewBox="0 0 98.97 144.63"><defs><style>.cls-1{fill:#272932;}</style></defs><path class="cls-1" d="M25.26,.13c1.92-.59,4.21,.85,4.38,2.88,.11,9.52,.03,19.04,.06,28.56V96.76c-.03,1.27,.62,2.57,1.72,3.19,5.37,3.16,10.79,6.27,16.16,9.44,1.07,.59,2.46,.79,3.53,.11,5.51-3.22,11.05-6.41,16.56-9.69,1.16-.65,1.58-2.03,1.58-3.31v-18.42c.03-1.33-.65-2.66-1.81-3.31-5.2-3.02-10.4-6.07-15.59-9.07-1.16-.68-2.37-1.72-2.4-3.19-.03-9.01,0-18.05,0-27.07,0-2.37,2.85-3.96,4.97-3.05,14.3,8.45,28.68,16.75,43,25.17,1.07,.68,1.55,1.98,1.55,3.19v53.28c.03,1.27-.59,2.57-1.72,3.22-14.97,8.79-29.98,17.49-44.95,26.27-.82,.48-1.64,1.1-2.66,1.07-.93,.08-1.78-.31-2.51-.82-15.11-8.84-30.23-17.66-45.34-26.5-1.07-.62-1.78-1.84-1.78-3.05V16.86c.03-1.16,.57-2.4,1.58-3.02C9.24,9.37,16.87,4.88,24.52,.45c.25-.11,.48-.25,.73-.31Z"/></svg>