<?xml version="1.0" encoding="UTF-8"?><svg id="Layer_1" xmlns="http://www.w3.org/2000/svg" viewBox="0 0 340.65 58.33"><defs><style>.cls-1{fill:#d8d6cd;}</style></defs><path class="cls-1" d="M50.58,6.13c3.45-2.1,6.97-4.11,10.47-6.13,.64,.31,1.55,.64,1.44,1.52,.05,18.63,.05,37.26,.02,55.88-4-.04-8-.04-11.99,0-.04-16.51,0-33.02-.01-49.53,0-.58,.03-1.16,.08-1.74Z"/><path class="cls-1" d="M163.77,.07c.18,0,.54-.03,.72-.04,.49,.34,1.07,.75,.96,1.45,.04,10.07,.04,20.13,.02,30.2,.15-.02,.43-.05,.58-.07,4.83-4.35,9.85-8.5,14.62-12.92,2.39,2.81,4.7,5.68,7.12,8.45-3.42,2.72-6.72,5.58-10.19,8.24,.33,1.11,1.07,2.02,1.65,3.01,2.87,4.71,5.73,9.42,8.58,14.14,1.01,1.61,1.87,3.33,3.05,4.83-4.54,.01-9.08,.03-13.61-.01-2.65-4.99-5.62-9.8-8.27-14.8-1.23,.85-2.5,1.74-3.5,2.86-.03,3.99-.02,7.99-.03,11.99-3.99-.05-7.98-.03-11.98,0-.06-16.97,.05-33.95-.05-50.93,.31-.4,.62-.83,1.1-1.05,3.09-1.77,6.14-3.59,9.22-5.36Z"/><path class="cls-1" d="M0,.3c7.77-.01,15.55-.04,23.33,.01,5.32,.41,11.05,1.53,15,5.41,3.19,2.92,4.33,7.48,4.07,11.66-.27,3.85-3.03,6.81-5.64,9.36,3.18,2.1,6,4.98,7.32,8.61,1.7,4.94,.96,10.77-2.25,14.94-2.63,3.34-6.67,5.18-10.7,6.2-2.01,.44-4.02,.99-6.09,.99-8.34,0-16.69,0-25.03,0C.04,38.43,.02,19.37,0,.3ZM13.32,11c0,3.91,.01,7.81,0,11.72,3.64-.03,7.37,.36,10.91-.71,1.67-.5,3.33-1.49,4.07-3.14,1.09-2.59-.1-6.06-2.85-7.05-3.86-1.5-8.09-.57-12.11-.82Zm0,22.35c-.03,4.46,.05,8.92-.04,13.38,1.71,.53,3.55,.13,5.32,.25,3.55-.05,7.61,.44,10.54-2,2.89-2.21,2.72-6.84,.4-9.39-1.62-1.61-3.96-2.23-6.18-2.25-3.34,0-6.69-.01-10.03,0Z"/><path class="cls-1" d="M85.69,18.94c6.61-.9,13.99,.09,19.08,4.75,4.26,3.71,6.1,9.51,5.92,15.03,.17,5.49-1.98,11.14-6.26,14.68-6.02,5.04-14.64,5.8-22.03,3.88-4.32-1.26-8.31-3.95-10.55-7.9-1.17-1.94-1.85-4.11-2.31-6.31-.37-2.88-.36-5.8-.01-8.68,.87-4.71,3.44-9.16,7.43-11.89,2.58-1.86,5.64-2.97,8.74-3.56Zm2.7,9.83c-3.38,.67-5.81,3.63-6.46,6.92-.41,3.42-.26,7.29,2.16,9.98,2.25,2.81,6.52,3.28,9.64,1.77,3.1-1.63,4.56-5.32,4.47-8.69,.11-3.39-1.12-7.17-4.13-9.02-1.68-1.12-3.76-1.1-5.69-.96Z"/><path class="cls-1" d="M121.85,22.37c4.8-3.46,11.04-4.29,16.78-3.36,3.12,.62,6.28,1.53,8.86,3.46-1.11,2.82-2.32,5.61-3.35,8.47-3.22-1.53-6.75-2.59-10.35-2.17-3.24,.7-5.9,3.34-6.65,6.57-.84,3.56-.47,7.79,2.25,10.49,2.06,2.19,5.28,2.83,8.16,2.29,2.34-.23,4.46-1.25,6.62-2.07,1.05,2.83,2.19,5.63,3.32,8.43-4.59,3.48-10.67,4.07-16.24,3.63-1.29-.27-2.6-.45-3.87-.81-4.4-1.32-8.45-4.14-10.67-8.23-1.09-1.86-1.75-3.92-2.17-6.02-.36-2.87-.34-5.78,0-8.65,.86-4.73,3.33-9.26,7.33-12.03Z"/><path class="cls-1" d="M198.8,23.5c4.89-4.37,11.9-5.55,18.21-4.48,3.08,.63,6.25,1.47,8.77,3.44-1,2.88-2.22,5.7-3.42,8.51-3.1-1.67-6.67-2.63-10.2-2.15-4.19,.75-7.09,4.95-7.05,9.08-.25,3.06,.72,6.33,3.11,8.36,2.24,2.07,5.55,2.35,8.42,1.74,2.07-.28,3.94-1.23,5.87-1.97,1.09,2.77,2.05,5.61,3.37,8.27-3.09,2.75-7.43,3.63-11.45,3.89-6.09,.4-12.68-1.27-16.97-5.84-4.03-4.18-5.35-10.34-4.77-15.98,.37-4.83,2.37-9.67,6.1-12.87Z"/><path class="cls-1" d="M247.77,18.7c3.9-.18,7.88,.19,11.48,1.8,4.98,2.04,8.89,6.51,10.19,11.74,1.48,5.8,1.08,12.38-2.26,17.49-3.09,4.83-8.63,7.59-14.21,8.3-5.3,.62-10.92,0-15.61-2.68-4.54-2.51-7.5-7.32-8.32-12.37-.76-4.99-.33-10.37,2.25-14.81,3.27-5.84,9.92-9.2,16.47-9.47Zm-6.29,17.08c-.61,3.43-.2,7.4,2.26,10.05,3.13,3.69,9.87,3.17,12.34-1.02,1.74-2.53,1.74-5.74,1.44-8.67-.47-3.34-2.76-6.57-6.18-7.35-1.17-.08-2.34-.08-3.51,0-3.32,.72-5.87,3.67-6.36,6.99Z"/><path class="cls-1" d="M308.3,24.6c3.77-4.11,9.48-6.19,15.02-5.91,4.08-.13,8.25,1.23,11.3,3.99,3.47,3.09,5.23,7.69,5.77,12.22,.51,2.29,.09,4.69,.24,7.02-8.07,0-16.15-.03-24.22,0,.59,2.83,2.75,5.31,5.6,6.02,5.1,1.36,10.52,.14,15.07-2.36,.99,2.89,2.4,5.62,3.29,8.54-5.65,3.7-12.62,4.73-19.25,3.95-4.74-.7-9.54-2.45-12.89-6.01-3.53-3.6-5.07-8.8-4.89-13.76-.1-4.96,1.55-10.04,4.95-13.72Zm9.83,6c-1.16,1.17-1.65,2.79-1.9,4.38,4.29,0,8.58,0,12.87,0-.38-2.34-1.6-4.75-3.84-5.8-2.35-1.05-5.4-.54-7.13,1.43Z"/><path class="cls-1" d="M276.06,19.82c2.02,.08,4.1-.2,6.08,.13,1.25,1.47,2.07,3.29,3.21,4.86,.42,.48,.96-.11,1.35-.32,3.42-2.4,7.32-4.34,11.52-4.78,.88,3.03,1.57,6.12,2.43,9.15,.02,.15,.06,.44,.07,.58-4.59,.36-9.03,2.47-12.47,5.48-.11,7.49,0,14.98-.06,22.47-4.05,0-8.1-.02-12.16,.01,0-12.53,0-25.05,.01-37.57Z"/></svg>