<?xml version="1.0" encoding="utf-8"?>
<!-- Generator: Adobe Illustrator 26.4.1, SVG Export Plug-In . SVG Version: 6.00 Build 0)  -->
<svg version="1.1" id="Layer_1" xmlns="http://www.w3.org/2000/svg" xmlns:xlink="http://www.w3.org/1999/xlink" x="0px" y="0px"
	 viewBox="0 0 100 100" style="enable-background:new 0 0 100 100;" xml:space="preserve">
<style type="text/css">
	.st0{fill-rule:evenodd;clip-rule:evenodd;fill:#FFFFFF;}
</style>
<path class="st0" d="M50,1.3c-27.6,0-50,22.4-50,50C0,73.3,14.3,92,34.2,98.6c2.5,0.4,3.4-1.1,3.4-2.4c0-1.2-0.1-5.1-0.1-9.3
	c-12.5,2.3-15.8-3.1-16.8-5.9c-0.6-1.4-3-5.9-5.1-7.1c-1.7-0.9-4.2-3.2-0.1-3.3c3.9-0.1,6.7,3.6,7.7,5.1c4.5,7.6,11.7,5.4,14.5,4.1
	c0.4-3.2,1.7-5.4,3.2-6.7C29.9,72,18.3,67.7,18.3,48.6c0-5.4,1.9-9.9,5.1-13.4c-0.5-1.2-2.2-6.4,0.5-13.2c0,0,4.2-1.3,13.7,5.1
	c4-1.1,8.2-1.7,12.5-1.7s8.5,0.6,12.5,1.7c9.6-6.5,13.7-5.1,13.7-5.1c2.8,6.9,1,12,0.5,13.2C80,38.7,82,43.1,82,48.6
	C82,67.8,70.3,72,59.2,73.3c1.8,1.6,3.4,4.6,3.4,9.2c0,6.7-0.1,12.1-0.1,13.7c0,1.3,0.9,2.9,3.4,2.4c19.7-6.6,34-25.3,34-47.4
	C100,23.6,77.6,1.3,50,1.3z"/>
</svg>
